<?xml version="1.0" encoding="utf-8"?>
<!-- Generator: Adobe Illustrator 25.4.1, SVG Export Plug-In . SVG Version: 6.00 Build 0)  -->
<svg version="1.1" id="Слой_1" xmlns="http://www.w3.org/2000/svg" xmlns:xlink="http://www.w3.org/1999/xlink" x="0px" y="0px"
	 viewBox="0 0 500 500" style="enable-background:new 0 0 500 500;" xml:space="preserve">
<style type="text/css">
	.st0{fill:#BCFFED;}
</style>
<g>
	<path class="st0" d="M80.5,320.5c0,0,0-76.31,0-116.66s39.02-39.66,39.02,0c0,0,0,16.44,0,29.05c0,12.61,26.98,13.39,26.98,0
		c0-13.39,0-72.94,0-101.67s38.17-29.28,38.17,0s0.17,38.62,0,53.95s26.83,16.33,26.83,1.33s0-68.71,0-96.36s36.66-27.36,36.66,0
		s0.34,78.36,0.34,97.36s30,19,30,4s0-32.4,0-58.2s32-25.8,32-0.8s0,91.04,0,109.52s33,18.48,33,1.48s0-13.95,0-42.98
		s31-28.02,31-0.02s0,101.35,0,126.17s-26.75,26.17-26.75,0s0-24.17,0-40.17s-36.25-16-36.25,0s0,51,0,70s-31,19-31,0s0-103,0-117
		s-30.5-14-30.5,0s0,118.37,0,145.68s-32.96,26.68-32.96,0s0-128.73,0-147.71s-31.12-20.02-31.12,0s0,100.02,0,126.02
		s-34.42,24-34.42,0s0-83,0-95s-32-14-32,0s0,28,0,52S80.5,343.5,80.5,320.5z"/>
	<g>
		<path d="M80.53,320.5c0-5.02,0-10.04,0-15.06c0-11.85,0-23.7,0-35.56c0-14.1,0-28.21,0-42.31c0-6.35,0-12.71,0-19.06
			c0-1.45-0.04-2.91,0-4.36c-0.02,0.92,0.03-0.27,0.04-0.59c0.02-0.4,0.04-0.8,0.07-1.2c0.07-0.99,0.16-1.98,0.29-2.97
			c0.38-2.98,1.03-5.94,2.07-8.77c2.86-7.82,9.6-15.3,18.66-14.18c9.52,1.18,14.92,10.69,16.79,19.2c0.35,1.58,0.6,3.17,0.77,4.77
			c0.1,0.93,0.18,1.86,0.22,2.79c0.02,0.4,0.02,0.8,0.05,1.2c0.05,0.79,0.01-0.89,0.01-0.48c0.02,1.76,0,3.52,0,5.28
			c0,7.82,0,15.64,0,23.45c0,2.48-0.12,4.87,1.27,7.03c1.12,1.75,2.88,3.01,4.76,3.86c4.08,1.85,9.07,2.09,13.35,0.79
			c4.08-1.24,7.42-4.2,7.62-8.66c0.18-4.01,0.03-8.06,0.03-12.07c0-12.2,0-24.4,0-36.61c0-14.03,0-28.06,0-42.09
			c0-2.97,0-5.93,0-8.9c0-1.36,0-2.72,0-4.08c0-1.2-0.05,1.01,0.01,0.48c0.05-0.47,0.05-0.95,0.09-1.42
			c0.07-0.75,0.16-1.49,0.29-2.24c0.83-4.76,3.06-9.26,6.78-12.41c6.59-5.57,16.63-5.84,23.42-0.46c3.84,3.05,6.17,7.55,7.07,12.32
			c0.13,0.69,0.23,1.38,0.31,2.07c0.05,0.42,0.08,0.83,0.11,1.25c0.03,0.4,0.08,1.95,0.05,0.27c0.05,2.38,0,4.77,0,7.16
			c0,4.23,0.01,8.46,0.02,12.69c0.03,11.28,0.02,21.5-0.03,32.55c-0.01,2.84-0.19,5.73,1.05,8.37c0.94,2.01,2.53,3.64,4.4,4.8
			c3.8,2.36,8.75,2.95,13.05,1.79c4.21-1.13,7.67-4.19,8.26-8.66c0.3-2.27,0.12-4.63,0.12-6.91c0-2.16,0-4.32,0-6.49c0-13,0-26,0-39
			c0-14.01,0-28.02,0-42.02c0-1.47,0-2.93,0-4.4c0-0.31,0-0.62,0-0.93c0-1.05-0.08,1.63,0.02,0.24c0.07-0.85,0.13-1.69,0.26-2.54
			c0.38-2.55,1.16-5.05,2.41-7.31c2.16-3.89,5.71-6.87,9.94-8.24c8.51-2.77,17.89,1.25,21.79,9.29c1.17,2.42,1.84,5.07,2.09,7.74
			c0.04,0.41,0.05,0.83,0.09,1.24c0.09,1.12,0.01-1.7,0.01-0.24c0,0.71,0,1.42,0,2.13c0,1.66,0,3.32,0.01,4.98
			c0.01,7,0.03,14,0.06,21c0.06,14.97,0.13,29.93,0.2,44.9c0.03,5.97,0.05,11.93,0.06,17.9c0.01,2.73-0.01,4.55,0.02,7.42
			c0.02,2.49,0.32,4.91,1.4,7.18c3.85,8.03,15.23,10.46,22.81,6.57c3.83-1.97,5.77-5.38,5.82-9.63c0.08-6.76,0.01-13.53,0.01-20.3
			c0-8.07,0-16.13,0-24.2c0-4.81,0-9.62,0-14.43c0-1.43-0.08,0.97,0.03-0.39c0.03-0.43,0.06-0.87,0.1-1.3
			c0.08-0.77,0.2-1.54,0.35-2.29c0.27-1.34,0.65-2.67,1.17-3.94c3.4-8.28,12.96-12.76,21.23-8.61c4.2,2.11,7.04,6.1,8.27,10.58
			c0.39,1.42,0.63,2.89,0.74,4.36c0.02,0.29,0.05,1.72,0.06,0.42c0.01-1.19,0-0.27,0,0.01c0,0.56,0,1.11,0,1.67
			c0,2.44,0,4.88,0,7.32c0,12.67,0,25.33,0,38c0,13.34,0,26.68,0,40.02c0,5.07,0,10.15,0,15.22c0,1.88,0,3.76,0,5.64
			c0,2.5-0.13,5.04,0.63,7.45c2.81,8.95,14.33,11.45,22.4,9.14c3.98-1.14,7.75-3.66,9.27-7.66c0.94-2.48,0.75-5.17,0.75-7.77
			c0-2.38,0-4.75,0-7.13c0-9.57,0-19.14,0-28.71c0-1.13,0-2.27,0-3.4c0-0.56,0-1.12,0-1.69c0-0.8-0.02,0.28,0,0.35
			c-0.08-0.27,0.03-0.69,0.04-0.97c0.09-1.64,0.3-3.27,0.65-4.88c0.57-2.63,1.52-5.2,2.98-7.47c2.26-3.49,5.79-6.15,9.98-6.69
			c4.02-0.52,8.02,0.99,10.95,3.73c3.85,3.6,5.68,8.86,6.2,14c0.05,0.45,0.08,0.91,0.11,1.36c0.01,0.25,0.01,0.5,0.04,0.75
			c0.08,0.73,0.01-0.93,0.01-0.85c0,0.55,0,1.09,0,1.64c0,1.09,0,2.19,0,3.28c0,2.57,0,5.15,0,7.72c0,6,0,12,0,17.99
			c0,14,0,28.01,0,42.01c0,12.85,0,25.7,0,38.56c0,4.57,0,9.15,0,13.72c0,0.24,0,0.48,0,0.72c0,0.54,0.04-1.12,0-0.96
			c-0.04,0.17-0.01,0.39-0.02,0.56c-0.07,0.93-0.14,1.85-0.28,2.77c-0.22,1.44-0.55,2.87-1.02,4.25c-0.78,2.28-1.96,4.46-3.6,6.24
			c-2.69,2.93-6.64,4.63-10.62,3.88c-4.36-0.82-7.55-4.28-9.23-8.23c-1.23-2.88-1.68-5.92-1.9-9.02c-0.07-0.98-0.02,0.97-0.02-0.35
			c0-0.64,0-1.29,0-1.93c0-1.18,0-2.36,0-3.54c0-1.86,0-3.72,0-5.57c0-4.73,0-9.45,0-14.18c0-4.42,0-8.84,0-13.27
			c0-2.43,0.14-4.87-0.93-7.12c-0.85-1.79-2.26-3.24-3.88-4.35c-3.69-2.53-8.39-3.48-12.8-3.55c-4.51-0.08-9.3,0.74-13.2,3.12
			c-1.69,1.03-3.22,2.4-4.21,4.13c-1.08,1.88-1.26,3.86-1.27,5.99c-0.04,6.36,0,12.72,0,19.07c0,15.08,0,30.15,0,45.23
			c0,1.61,0,3.21,0,4.82c0,0.33,0,0.67,0,1c0,0.22,0,0.44,0,0.66c0,0.69-0.05-1.38,0.01-1.32c0.22,0.22-0.18,1.9-0.24,2.22
			c-0.42,2.25-1.4,4.37-2.88,6.11c-2.89,3.38-7.35,5.07-11.73,5.21c-4.38,0.14-8.96-1.23-12.15-4.32c-1.61-1.56-2.78-3.52-3.4-5.67
			c-0.17-0.57-0.29-1.16-0.39-1.75c-0.04-0.28-0.08-0.57-0.11-0.85c-0.02-0.21-0.03-0.43-0.05-0.65c-0.13-1.25-0.01,1.76-0.01,1.3
			c0.01-0.65,0-1.3,0-1.95c0-8.89,0-17.77,0-26.66c0-12.16,0-24.32,0-36.49c0-11.35,0-22.7,0-34.05c0-4.03,0-8.06,0-12.1
			c0-1.36,0-2.73,0-4.09c0-1.93,0.19-3.94-0.22-5.84c-0.9-4.19-4.82-6.66-8.68-7.76c-4.44-1.27-9.47-1.19-13.84,0.35
			c-3.88,1.37-7.4,4.22-7.76,8.57c-0.23,2.81-0.05,5.73-0.05,8.55c0,8.23,0,16.46,0,24.69c0,11.73,0,23.46,0,35.19
			c0,12.41,0,24.81,0,37.22c0,10.47,0,20.94,0,31.41c0,3.63,0,7.26,0,10.89c0,0.16,0,0.32,0,0.48c0,0.87-0.02-0.71,0-0.83
			c-0.16,0.88-0.1,1.83-0.22,2.72c-0.18,1.43-0.48,2.85-0.91,4.23c-0.73,2.34-1.85,4.56-3.41,6.45c-5.6,6.8-15.82,7.45-22.28,1.47
			c-3.84-3.57-5.68-8.74-6.04-13.89c-0.02-0.3-0.05-1.78-0.05-0.43c-0.01,1.17,0,0.46,0,0.19c0-0.39,0-0.77,0-1.16
			c0-0.82,0-1.64,0-2.46c0-1.87,0-3.74,0-5.61c0-10.3,0-20.6,0-30.9c0-12.56,0-25.12,0-37.68c0-12.17,0-24.34,0-36.51
			c0-8.95,0-17.9,0-26.85c0-3.37,0.24-6.88-0.12-10.23c-0.5-4.59-3.18-8.52-7.22-10.74c-7.58-4.16-18.91-2.25-22.59,6.23
			c-1.76,4.05-1.24,8.69-1.24,13c0,4.36,0,8.72,0,13.08c0,12.15,0,24.31,0,36.46c0,13.22,0,26.45,0,39.67c0,10.29,0,20.59,0,30.88
			c0,0.44,0,0.87,0,1.31c0,0.77,0.09-1.81-0.02-0.63c-0.04,0.47-0.06,0.94-0.11,1.41c-0.15,1.38-0.41,2.75-0.81,4.08
			c-0.7,2.3-1.82,4.48-3.4,6.31c-2.77,3.21-6.77,5.11-10.97,5.43c-9.39,0.73-17.45-6.06-18.83-15.27c-0.11-0.73-0.09-1.49-0.22-2.22
			c-0.1-0.57-0.01,1.82-0.01,0.67c0-0.29,0-0.58,0-0.87c0-1.21,0-2.41,0-3.62c0-2.76,0-5.52,0-8.28c0-6.35,0-12.71,0-19.06
			c0-13.38,0-26.75,0-40.13c0-5.11,0-10.21,0-15.32c0-1.74,0-3.48,0-5.21c0-1.9,0.23-3.91-0.17-5.77c-0.84-3.9-4.95-6.07-8.43-7.17
			c-4.45-1.4-9.43-1.65-13.99-0.64c-3.78,0.84-7.94,2.86-9.11,6.86c-0.76,2.59-0.35,5.57-0.35,8.23c0,3.16,0,6.32,0,9.49
			c0,7.25,0,14.5,0,21.74c0,4.64,0,9.27,0,13.91c0,0.57,0,1.14,0,1.7c0,0.29,0,0.58,0,0.87c0,0.92-0.01-0.61,0-0.62
			c-0.24,0.28-0.16,1.79-0.23,2.23c-0.19,1.2-0.51,2.38-0.95,3.51c-3.38,8.65-13.44,12-22.04,10.54c-3.94-0.67-7.79-2.35-10.71-5.12
			c-1.45-1.38-2.65-3.01-3.49-4.83c-0.44-0.93-0.78-1.91-1.03-2.91c-0.13-0.52-0.24-1.05-0.32-1.59c-0.05-0.32-0.09-0.64-0.12-0.97
			c-0.02-0.18-0.07-1.29-0.07-0.63c0-0.09,0.02-1.84-0.03-0.9c-0.07,1.13-0.02,2.29-0.01,3.42c0.04,4.87,1.13,9.4,4.64,12.98
			c3.08,3.15,7.32,4.98,11.63,5.63c8.71,1.3,18.71-2.36,21.77-11.23c0.89-2.59,0.99-5.25,1-7.97c0.01-4.8,0-9.59,0-14.39
			c0-7.66,0-15.32,0-22.98c0-3.15,0-6.31,0-9.46c0-1.55,0-3.09,0-4.64c0-0.17,0-0.34,0-0.51c0-1.2-0.03,1.28-0.01,1.26
			c0.07-0.06,0.07-0.67,0.09-0.81c0.08-0.49,0.21-0.98,0.38-1.45c1.47-3.96,5.85-5.79,9.7-6.51c4.58-0.86,9.55-0.51,13.95,1.03
			c1.94,0.68,3.85,1.63,5.36,3.04c0.66,0.61,1.24,1.31,1.68,2.1c0.42,0.77,0.5,1.56,0.77,2.37c0.3,0.9,0.02-2.32,0.02-1.4
			c0,0.13,0,0.26,0,0.4c0,0.34,0,0.69,0,1.03c0,0.8,0,1.59,0,2.39c0,2.06,0,4.12,0,6.18c0,5.52,0,11.05,0,16.57
			c0,13.59,0,27.19,0,40.78c0,6.19,0,12.37,0,18.56c0,2.47,0,4.95,0,7.42c0,2.87-0.1,5.77,0.51,8.6
			c1.95,9.03,10.56,15.18,19.76,13.83c4.26-0.62,8.15-2.89,10.67-6.39c3.32-4.61,3.53-10.09,3.53-15.57c0-10.16,0-20.32,0-30.47
			c0-13.32,0-26.63,0-39.95c0-12.27,0-24.55,0-36.82c0-4.42,0-8.83,0-13.25c0-0.85,0-1.7,0-2.54c0-0.36,0-0.73,0-1.09
			c0-0.16,0-0.32,0-0.47c0-1.31-0.08,2.02,0,1.1c0.22-2.52,0.73-4.9,2.08-7.08c4.77-7.7,16.38-8.57,23.35-3.5
			c1.79,1.3,3.26,3,4.24,4.99c0.52,1.06,0.9,2.18,1.13,3.34c0.13,0.63,0.18,1.27,0.26,1.91c0.19,1.72,0.02-2.32,0.02-0.64
			c0,2.94,0,5.89,0,8.83c0,9.74,0,19.48,0,29.22c0,12.51,0,25.01,0,37.52c0,12.46,0,24.92,0,37.37c0,9.59,0,19.19,0,28.78
			c0,4.57-0.34,9.28,0.63,13.77c1.03,4.74,3.57,9.19,7.71,11.86c7.57,4.89,17.43,2.03,21.79-5.67c2.8-4.94,2.88-10.46,2.88-15.98
			c0-3.69,0-7.39,0-11.08c0-10.6,0-21.21,0-31.81c0-12.54,0-25.08,0-37.62c0-11.7,0-23.39,0-35.09c0-8.08,0-16.15,0-24.23
			c0-1.13,0-2.26,0-3.4c0-0.19,0-0.38,0-0.58c0-1.51-0.23,2.43,0.02,1.03c0.19-1.02,0.37-1.96,0.84-2.9
			c1.97-3.91,6.56-5.73,10.64-6.36c4.49-0.69,9.48-0.22,13.53,1.96c1.78,0.96,3.4,2.32,4.39,4.11c0.49,0.88,0.81,1.85,0.95,2.84
			c0.07,0.45,0.08,1.66,0.07-0.18c-0.01-1.69,0-0.98,0-0.6c0,0.27,0,0.54,0,0.81c0,7.83,0,15.66,0,23.5c0,11.99,0,23.98,0,35.97
			c0,11.85,0,23.69,0,35.54c0,4.55,0,9.1,0,13.65c0,3.8-0.31,7.79,0.14,11.56c1.17,9.83,11.96,14.18,20.69,11.55
			c4.28-1.29,7.93-4.31,9.41-8.6c0.95-2.75,0.81-5.65,0.81-8.52c0-3.29,0-6.57,0-9.86c0-15.24,0-30.49,0-45.73c0-3.1,0-6.21,0-9.31
			c0-0.66,0-1.32,0-1.98c0-0.34,0-0.67,0-1.01c0-0.14,0-0.28,0-0.42c0-1.05-0.04,1.49-0.01,1.39c0.34-0.96,0.27-2.05,0.67-3.04
			c1.59-3.92,5.61-6.17,9.48-7.31c4.51-1.32,9.45-1.45,14.05-0.47c4.03,0.86,8.37,2.71,10.63,6.35c0.49,0.79,0.87,1.65,1.1,2.55
			c0.12,0.47,0.18,0.95,0.26,1.43c0.24,1.57,0.03-2.11,0.03-0.75c0,0.39,0,0.78,0,1.18c0,2.41,0,4.83,0,7.24c0,3.88,0,7.76,0,11.65
			c0,7.46-0.13,14.92,0.02,22.38c0.11,5.34,1.26,11.17,5.12,15.13c2.8,2.87,6.85,4.2,10.76,3.16c4.33-1.16,7.45-4.79,9.09-8.82
			c2.13-5.21,1.8-10.86,1.8-16.37c0-5.01,0-10.03,0-15.04c0-13.31,0-26.62,0-39.93c0-13.89,0-27.77,0-41.66c0-5.73,0-11.46,0-17.19
			c0-5.41,0.43-11.03-0.45-16.37c-0.81-4.91-2.96-9.81-6.95-12.95c-3.13-2.46-7.21-3.55-11.12-2.66c-4.32,0.98-7.7,4.17-9.71,8.03
			c-3.18,6.11-2.82,13.05-2.82,19.73c0,9.95,0,19.9,0,29.85c0,2.33,0,4.66,0,6.99c0,0.32,0,0.64,0,0.96c0,0.22-0.01,0.45,0,0.67
			c0.01,0.21,0.13-2.09,0-1.42c-0.12,0.62-0.12,1.26-0.26,1.88c-0.23,1.02-0.61,2.01-1.12,2.93c-2.1,3.73-6.21,5.81-10.29,6.61
			c-8.43,1.65-19.65-1.8-21.14-11.44c-0.04-0.27-0.08-0.54-0.1-0.8c-0.16-1.75-0.04,0.75-0.04,0.85c0-0.41,0-0.83,0-1.24
			c0-0.91,0-1.82,0-2.72c0-2.21,0-4.42,0-6.63c0-5.61,0-11.22,0-16.83c0-13.69,0-27.39,0-41.08c0-12.09,0-24.19,0-36.28
			c0-5.35,0.43-10.91-1.7-15.95c-1.76-4.16-5.13-7.53-9.45-8.95c-3.95-1.29-8.35-0.87-11.99,1.14c-4.23,2.33-6.98,6.55-8.14,11.17
			c-0.83,3.3-0.77,6.68-0.77,10.06c0,4.89,0,9.79,0,14.68c0,8.05,0,16.1,0,24.14c0,3.43,0,6.86,0,10.29c0,1.6,0,3.2,0,4.81
			c0,0.75,0,1.5,0,2.25c0,1.54,0.11-1.52-0.01-0.87c-0.06,0.33-0.06,0.68-0.12,1.01c-0.71,4.07-3.99,6.86-7.77,8.11
			c-8.41,2.78-19.48-0.96-21.66-10.24c-0.14-0.61-0.25-1.22-0.31-1.84c-0.04-0.37-0.03-0.75-0.08-1.11c0.37,2.54,0.01,1.7,0.01,0.89
			c0-1.25,0-2.5,0-3.76c0-2.6-0.01-5.21-0.02-7.81c-0.02-6.71-0.05-13.42-0.08-20.13c-0.07-15.07-0.14-30.14-0.19-45.22
			c-0.02-6.41-0.04-12.82-0.04-19.23c0-5.67-0.46-11.26-3.87-16.02c-5.15-7.19-15.21-9.49-23-5.34c-4.11,2.19-7.08,5.97-8.56,10.36
			c-1.91,5.66-1.28,11.93-1.28,17.81c0,14.16,0,28.33,0,42.49c0,12.86,0,25.71,0,38.57c0,2.09,0,4.18,0,6.28c0,0.4,0,0.81,0,1.21
			c0,0.17,0,0.34,0,0.52c0-0.04,0.19-2.69-0.03-1.23c-0.03,0.18-0.04,0.35-0.06,0.53c-0.16,1.11-0.5,2.19-1.02,3.19
			c-2.07,3.92-6.59,5.7-10.82,5.88c-4.43,0.19-9.27-1.26-12.25-4.68c-1.57-1.81-2.23-3.85-2.58-6.18c-0.21-1.37-0.03,3.3-0.02,2.78
			c0-0.2,0-0.41,0.01-0.61c0-0.3,0.01-0.6,0.01-0.91c0.01-0.69,0.01-1.38,0.02-2.07c0.01-1.36,0.02-2.72,0.03-4.09
			c0.06-12.71-0.03-25.41-0.05-38.12c-0.01-4.47,0.14-8.97-0.05-13.44c-0.12-2.71-0.57-5.41-1.5-7.96
			c-1.6-4.36-4.63-8.13-8.75-10.32c-7.73-4.12-17.65-2.07-23.15,4.73c-3.29,4.06-4.63,9.24-4.75,14.39
			c-0.14,6.09-0.02,12.2-0.02,18.29c0,14.16,0,28.32,0,42.47c0,12.04,0,24.07,0,36.11c0,1.88,0,3.76,0,5.64c0,0.36,0,0.71,0,1.07
			c0,0.46,0,1.9,0,0.06c0.01-1.88-0.1,0.16-0.24,0.72c-0.13,0.52-0.32,1.03-0.55,1.51c-1.9,3.97-6.6,5.64-10.71,5.97
			c-4.35,0.35-9.38-0.57-12.7-3.6c-1.55-1.42-2.31-3.09-2.7-5.12c-0.26-1.33-0.03,2.28-0.03,0.41c0-0.46,0-0.92,0-1.38
			c0-1.1,0-2.2,0-3.3c0-2.13,0-4.26,0-6.39c0-5.58,0-11.15,0-16.73c0-6.11-0.36-12.2-2.46-17.99c-2.85-7.86-9.6-15.51-18.71-14.54
			c-9.7,1.03-15.06,10.81-16.86,19.42c-1.34,6.41-1.04,13-1.04,19.51c0,6.57,0,13.15,0,19.72c0,14.1,0,28.21,0,42.31
			c0,11.65,0,23.3,0,34.95c0,4.39,0,8.77,0,13.16c0,0.19,0,2.5,0.03,2.5C80.53,323,80.53,320.52,80.53,320.5z"/>
	</g>
</g>
</svg>
